<?xml version="1.0" encoding="UTF-8"?>
<svg id="Layer_2" data-name="Layer 2" xmlns="http://www.w3.org/2000/svg" viewBox="0 0 934.38 388.67">
  <defs>
    <style>
      .cls-1 {
        fill: #3f4345;
        font-family: MagicalMysteryTour, 'Magical Mystery Tour';
        font-size: 172.25px;
      }

      .cls-2 {
        fill: #ea580c;
      }

      .cls-3 {
        fill: #fff;
        font-family: Poppins-SemiBold, Poppins;
        font-size: 32.45px;
        font-weight: 600;
      }
    </style>
  </defs>
  <g id="Layer_1-2" data-name="Layer 1">
    <g>
      <g>
        <path class="cls-2" d="M277.68,77.69c-15.23-13.79-32.83-25-52.15-32.92-12.69,5.82-21.5,18.63-21.5,33.5,0,20.33,16.5,36.83,36.85,36.83s36.83-16.5,36.83-36.83c0-.19,0-.38-.02-.57ZM286.56,86.33c-3.38,19.23-18.65,34.41-37.9,37.69.29.45.55.93.81,1.41,2.99,5.67,4.5,12.19,4.5,19.54,0,46.69-10.49,94.46-31.44,143.26-8.69,20.07-20.06,30.1-34.14,30.1s-26.51-10.03-35.49-30.1c-20.81-45.95-31.22-94.68-31.22-146.18,0-6.61,1.51-12.5,4.5-17.74,3.74-6.3,8.76-9.43,15.04-9.43,9.15,0,16.33,5.6,21.57,16.83,3.59,7.78,7.04,20.52,10.32,38.19,3.59,18.41,8.69,27.61,15.28,27.61s11.23-8.91,14.37-26.72c3.16-17.81,6.82-31.06,11.01-39.75,2.2-4.55,4.69-8.14,7.45-10.75-15.8-7.4-26.77-23.44-26.77-42.02,0-15.56,7.71-29.38,19.51-37.78-17.65-5.84-36.54-9-56.15-9C89.41,31.47,29.98,69.93,0,126.41c1.87-1.48,3.88-2.78,6.03-3.9,9.15-4.96,21.65-7.42,37.52-7.42,9.58,0,19.75,1.27,30.53,3.83,8.52,2.08,15.23,5.12,20.09,9.07,4.88,3.97,7.3,8.21,7.3,12.69,0,8.24-8.31,15.06-24.93,20.45l-18.17,4.93c-9.89,2.85-14.82,7.35-14.82,13.48s5,10.92,15.04,13.91l19.08,5.63c13.48,4.05,20.21,10.03,20.21,17.96,0,5.7-7.11,10.87-21.33,15.49l-19.08,6.08c-9.12,2.99-13.7,8.24-13.7,15.71s4.57,12.74,13.7,15.28l25.84,7.4c12.12,3.62,18.17,9.89,18.17,18.87,0,3.9-2.01,7.64-6.06,11.23-5.24,4.5-13.1,7.71-23.59,9.67-6.58,1.2-15.04,1.8-25.38,1.8-11.06,0-21.02-.6-29.86-1.8-.77-.1-1.51-.22-2.25-.34,32.54,43.84,84.69,72.24,143.47,72.24,98.63,0,178.6-79.97,178.6-178.6,0-48.06-18.96-91.66-49.85-123.74ZM277.68,77.69c-15.23-13.79-32.83-25-52.15-32.92-12.69,5.82-21.5,18.63-21.5,33.5,0,20.33,16.5,36.83,36.85,36.83s36.83-16.5,36.83-36.83c0-.19,0-.38-.02-.57Z"/>
        <path class="cls-2" d="M277.71,78.26c0,20.33-16.5,36.83-36.83,36.83s-36.85-16.5-36.85-36.83c0-14.87,8.81-27.68,21.5-33.5,4.67-2.16,9.87-3.35,15.35-3.35,20.14,0,36.51,16.19,36.8,36.28.02.19.02.38.02.57Z"/>
        <circle class="cls-2" cx="306.2" cy="25.98" r="25.98"/>
        <circle class="cls-2" cx="369.49" cy="28.02" r="22.2"/>
        <circle class="cls-2" cx="412.59" cy="67.04" r="18.11"/>
        <circle class="cls-2" cx="435.5" cy="109.23" r="13.92"/>
      </g>
      <path class="cls-2" d="M934.38,247.6c0,27.12-22.01,49.12-49.12,49.12s-49.15-22.01-49.15-49.12c0-19.83,11.75-36.92,28.68-44.68,6.23-2.87,13.16-4.47,20.47-4.47,26.86,0,48.71,21.59,49.09,48.39.03.26.03.51.03.77Z"/>
      <text class="cls-1" transform="translate(356.4 268.44)"><tspan x="0" y="0">ORGS</tspan></text>
      <text class="cls-3" transform="translate(841.07 256.99)"><tspan x="0" y="0">.COM</tspan></text>
    </g>
  </g>
</svg>